<?xml version="1.0" encoding="UTF-8" standalone="no"?>
<!-- Created with Inkscape (http://www.inkscape.org/) -->

<svg
   width="23.471113mm"
   height="23.147833mm"
   viewBox="0 0 23.471113 23.147833"
   version="1.1"
   id="svg14044"
   sodipodi:docname="addshopping.svg"
   inkscape:version="1.2.2 (732a01da63, 2022-12-09)"
   inkscape:export-filename="addshopping.png"
   inkscape:export-xdpi="96"
   inkscape:export-ydpi="96"
   xmlns:inkscape="http://www.inkscape.org/namespaces/inkscape"
   xmlns:sodipodi="http://sodipodi.sourceforge.net/DTD/sodipodi-0.dtd"
   xmlns="http://www.w3.org/2000/svg"
   xmlns:svg="http://www.w3.org/2000/svg">
  <sodipodi:namedview
     id="namedview10"
     pagecolor="#505050"
     bordercolor="#ffffff"
     borderopacity="1"
     inkscape:showpageshadow="0"
     inkscape:pageopacity="0"
     inkscape:pagecheckerboard="1"
     inkscape:deskcolor="#505050"
     inkscape:document-units="mm"
     showgrid="false"
     inkscape:zoom="5.3950335"
     inkscape:cx="32.715274"
     inkscape:cy="40.778246"
     inkscape:window-width="1440"
     inkscape:window-height="837"
     inkscape:window-x="-8"
     inkscape:window-y="-8"
     inkscape:window-maximized="1"
     inkscape:current-layer="svg14044" />
  <defs
     id="defs14041" />
  <g
     id="layer1"
     transform="translate(-3.2573497,-3.3895304)">
    <g
       id="g15665"
       transform="matrix(0.11109996,0,0,0.11730992,12.525384,16.167437)">
      <path
         style="fill:#fa04fc;fill-opacity:1;stroke:none;stroke-width:0.0946432;stroke-linecap:round;stroke-linejoin:round"
         d="m -63.984766,60.70823 0.471928,-20.180643 c 43.705127,-9.312766 86.818033,-22.391538 168.113408,0 L 91.462414,16.154276 C 55.022745,8.4460319 -9.8461397,27.198016 -47.83514,9.2326658 -78.604684,-15.908874 -63.389946,-42.287909 -81.827,-72.105949 c -3.882356,-3.176456 0.361626,-8.43417 3.788005,-9.264565 l 14.288487,0.117249 c 0.934573,0.433995 1.85251,0.915258 2.498322,2.169681 C -79.205641,29.798934 5.0456416,12.987988 82.952899,1.8160025 92.100383,-54.154428 62.923483,-103.29884 97.718678,-108.84488 c 7.898712,-0.11667 19.141712,0.13187 30.030052,0 0.0671,-0.17309 -0.21724,12.483744 0.0445,14.714889 -9.81518,0.421679 -17.95859,-0.268673 -25.67676,-0.0245 -7.601158,0.240748 -6.174305,4.240615 -10.043598,18.762697 L 99.058848,0.18695888 C 98.017879,21.525027 134.8523,48.833918 121.59692,59.936513 65.683618,32.400817 -27.446967,35.943131 -63.971057,60.700079"
         id="path13289"
         sodipodi:nodetypes="cccccccccccccccccc" />
      <g
         id="g15659"
         transform="translate(-72.541038,-26.76262)">
        <path
           style="fill:#fa04fc;fill-opacity:1;stroke:#3c0042;stroke-width:0.0767292;stroke-linecap:round;stroke-linejoin:round"
           id="path548"
           d="M 31.526656,96.781917 A 17.79435,16.933332 0 0 1 50.643532,81.305927 17.79435,16.933332 0 0 1 67.007058,99.4159 17.79435,16.933332 0 0 1 48.062824,115.08296 17.79435,16.933332 0 0 1 31.499428,97.13828 Z" />
        <path
           style="fill:#fa04fc;fill-opacity:1;stroke:#3c0042;stroke-width:0.0767292;stroke-linecap:round;stroke-linejoin:round"
           id="path548-9"
           d="m 126.81245,96.728206 a 17.79435,16.933332 0 0 1 19.11688,-15.47599 17.79435,16.933332 0 0 1 16.36352,18.109973 17.79435,16.933332 0 0 1 -18.94423,15.667061 17.79435,16.933332 0 0 1 -16.5634,-17.944681 z" />
      </g>
    </g>
  </g>
  <rect
     style="fill:#fa04fc;fill-opacity:1;stroke-width:0.0509309;stroke-linecap:round;stroke-linejoin:round"
     id="rect343"
     width="8.0428905"
     height="1.7655127"
     x="6.7965264"
     y="6.9212976"
     ry="0.88275635" />
  <rect
     style="fill:#fa04fc;fill-opacity:1;stroke-width:0.0509309;stroke-linecap:round;stroke-linejoin:round"
     id="rect343-4"
     width="8.0428905"
     height="1.7655127"
     x="-11.833912"
     y="9.9597359"
     transform="rotate(-90)"
     ry="0.88275635" />
</svg>
