<?xml version="1.0" encoding="UTF-8" standalone="no"?>
<!-- Created with Inkscape (http://www.inkscape.org/) -->

<svg
   width="23.471113mm"
   height="23.147833mm"
   viewBox="0 0 23.471113 23.147833"
   version="1.1"
   id="svg14044"
   sodipodi:docname="perfil.svg"
   xml:space="preserve"
   inkscape:version="1.2.2 (732a01da63, 2022-12-09)"
   inkscape:export-filename="perfil.png"
   inkscape:export-xdpi="96"
   inkscape:export-ydpi="96"
   xmlns:inkscape="http://www.inkscape.org/namespaces/inkscape"
   xmlns:sodipodi="http://sodipodi.sourceforge.net/DTD/sodipodi-0.dtd"
   xmlns="http://www.w3.org/2000/svg"
   xmlns:svg="http://www.w3.org/2000/svg"><sodipodi:namedview
     id="namedview10"
     pagecolor="#505050"
     bordercolor="#ffffff"
     borderopacity="1"
     inkscape:showpageshadow="0"
     inkscape:pageopacity="0"
     inkscape:pagecheckerboard="1"
     inkscape:deskcolor="#505050"
     inkscape:document-units="mm"
     showgrid="false"
     inkscape:zoom="5.3950335"
     inkscape:cx="24.003558"
     inkscape:cy="42.817158"
     inkscape:window-width="1440"
     inkscape:window-height="837"
     inkscape:window-x="-8"
     inkscape:window-y="-8"
     inkscape:window-maximized="1"
     inkscape:current-layer="layer1" /><defs
     id="defs14041" /><g
     id="g1839"
     transform="translate(-0.19616808,1.8635967)"><g
       id="layer1"
       transform="translate(-3.2573497,-3.3895304)"><g
         id="g15665"
         transform="matrix(0.11109996,0,0,0.11730992,12.525384,16.167437)" /><path
         style="fill:#000001;fill-opacity:0.976471;stroke-width:0.0896633;stroke-linecap:round;stroke-linejoin:round"
         d="m 19.270186,14.831981 1.67118,-5.5447931 -5.798982,-3.8968375 -5.652542,4.3594122 1.288663,4.7378804 c 4.384964,4.871606 5.31069,3.338368 8.491681,0.344338 z"
         id="path373"
         sodipodi:nodetypes="cccccc" /><path
         style="fill:#fa04fc;stroke-width:0.0896633;stroke-linecap:round;stroke-linejoin:round"
         d="m 15.179207,6.4863631 4.778735,3.4195717 -1.749959,6.8341842 -2.930143,3.659364 1.304441,-0.736621 2.657947,-2.544236 2.67995,-7.6388995 -2.22628,-5.3573276 -4.271353,-2.468038 -4.680369,2.2251989 -2.5317468,5.4960925 2.5369238,7.7312027 2.66636,2.507686 1.817267,0.778077 -3.406727,-3.781352 -1.718896,-6.407979 z"
         id="path371"
         sodipodi:nodetypes="ccccccccccccccccc" /><path
         style="fill:#fa04fc;fill-opacity:1;stroke-width:0.0882343;stroke-linecap:round;stroke-linejoin:round"
         d="m 9.9369256,15.814652 c -0.849104,-0.220852 -1.3073879,0.02583 -1.6204972,0.504213 -0.8889922,0.801012 -1.6052526,2.028237 -2.1553727,3.665413 -0.053734,0.732436 0.055606,1.431318 0.965427,1.965509 1.3846765,1.36431 4.1295893,1.769656 6.8702483,2.177999 0.965404,0.249957 1.976783,0.342782 3.120799,-0.01771 2.295426,-0.537339 4.610288,-0.882838 6.825346,-2.213414 0.589137,-0.334931 1.213623,-0.637586 0.696004,-1.983217 -0.714228,-1.861026 -1.638768,-2.832429 -2.604407,-3.629994 -0.555028,-0.468376 -1.272259,-0.800946 -2.424794,-0.33644 -2.585853,1.614974 -7.204434,1.26271 -9.6727534,-0.132372 z"
         id="path1493"
         sodipodi:nodetypes="ccccccccccc" /></g></g></svg>
