<?xml version="1.0" encoding="UTF-8" standalone="no"?>
<!-- Created with Inkscape (http://www.inkscape.org/) -->

<svg
   width="23.471113mm"
   height="23.147833mm"
   viewBox="0 0 23.471113 23.147833"
   version="1.1"
   id="svg14044"
   xmlns="http://www.w3.org/2000/svg"
   xmlns:svg="http://www.w3.org/2000/svg">
  <defs
     id="defs14041" />
  <g
     id="layer1"
     transform="translate(-3.2573497,-3.3895304)">
    <g
       id="g15665"
       transform="matrix(0.11109996,0,0,0.11730992,12.525384,16.167437)">
      <path
         style="fill:#fa04fc;fill-opacity:1;stroke:#3c0042;stroke-width:0.0946432;stroke-linecap:round;stroke-linejoin:round"
         d="m -63.984766,60.70823 0.471928,-20.180643 c 43.705127,-9.312766 86.818033,-22.391538 168.113408,0 L 91.462414,16.154276 C 55.022745,8.4460319 -9.8461397,27.198016 -47.83514,9.2326658 -78.604684,-15.908874 -63.389946,-42.287909 -81.827,-72.105949 c -3.882356,-3.176456 0.361626,-8.43417 3.788005,-9.264565 l 153.683757,1.261101 c 5.560016,-11.605997 5.502447,-25.235227 22.073916,-28.735467 7.898712,-0.11667 19.141712,0.13187 30.030052,0 0.0671,-0.17309 -0.21724,12.483744 0.0445,14.714889 -9.81518,0.421679 -17.95859,-0.268673 -25.67676,-0.0245 -7.601158,0.240748 -6.174305,4.240615 -10.043598,18.762697 L 99.058848,0.18695888 C 98.017879,21.525027 134.8523,48.833918 121.59692,59.936513 65.683618,32.400817 -27.446967,35.943131 -63.971057,60.700079"
         id="path13289" />
      <g
         id="g15659"
         transform="translate(-72.541038,-26.76262)">
        <path
           style="fill:#fa04fc;fill-opacity:1;stroke:#3c0042;stroke-width:0.0767292;stroke-linecap:round;stroke-linejoin:round"
           id="path548"
           d="M 31.526656,96.781917 A 17.79435,16.933332 0 0 1 50.643532,81.305927 17.79435,16.933332 0 0 1 67.007058,99.4159 17.79435,16.933332 0 0 1 48.062824,115.08296 17.79435,16.933332 0 0 1 31.499428,97.13828 Z" />
        <path
           style="fill:#fa04fc;fill-opacity:1;stroke:#3c0042;stroke-width:0.0767292;stroke-linecap:round;stroke-linejoin:round"
           id="path548-9"
           d="m 126.81245,96.728206 a 17.79435,16.933332 0 0 1 19.11688,-15.47599 17.79435,16.933332 0 0 1 16.36352,18.109973 17.79435,16.933332 0 0 1 -18.94423,15.667061 17.79435,16.933332 0 0 1 -16.5634,-17.944681 z" />
      </g>
    </g>
  </g>
</svg>
